<svg xmlns="http://www.w3.org/2000/svg" width="20" height="3000" viewBox="0 0 20 3000">
  <defs>
    <style>
      .cls-1 {
        fill: #77e075;
      }

      .cls-1, .cls-2, .cls-3, .cls-4, .cls-5, .cls-6 {
        fill-rule: evenodd;
      }

      .cls-2 {
        fill: #00524e;
      }

      .cls-3 {
        fill: #ff5b0e;
      }

      .cls-4 {
        fill: #ffd40e;
      }

      .cls-5 {
        fill: #335fb3;
      }

      .cls-6 {
        fill: #325fb2;
      }
    </style>
  </defs>
  <path id="Forma_1" data-name="Forma 1" class="cls-1" d="M15.364,2773.64A8.991,8.991,0,1,0,18,2780,8.945,8.945,0,0,0,15.364,2773.64ZM9,2774.49A5.51,5.51,0,1,1,3.491,2780,5.515,5.515,0,0,1,9,2774.49Zm5.785,11.3A8.182,8.182,0,0,1,.818,2780H2.673A6.327,6.327,0,1,0,9,2773.67q-0.311,0-.614.03v-1.86c0.2-.01.408-0.02,0.614-0.02A8.184,8.184,0,0,1,14.786,2785.79Z"/>
  <path id="excel" class="cls-1" d="M15.484,2177.85H9.846v1.83h1.865v1.25H9.846v1.22h1.846v1.23H9.846v1.23h1.846v1.24H9.846v1.23h1.846v1.23H9.846v1.84h5.638a0.525,0.525,0,0,0,.516-0.53v-11.24A0.525,0.525,0,0,0,15.484,2177.85Zm-0.715,10.46H12.308v-1.23h2.461v1.23Zm0-2.46H12.308v-1.24h2.461v1.24Zm0-2.47H12.308v-1.23h2.461v1.23Zm0-2.46H12.308v-1.23h2.461v1.23ZM0,2177.78v12.44L9.231,2192v-16Zm5.839,9.35-1.074-2.03a1.935,1.935,0,0,1-.126-0.42H4.622a3.217,3.217,0,0,1-.144.43L3.4,2187.13H1.727l1.987-3.12L1.9,2180.89H3.6l0.891,1.87a3.163,3.163,0,0,1,.187.53H4.7a5.44,5.44,0,0,1,.2-0.55l0.991-1.85H7.451l-1.869,3.09,1.921,3.14-1.665.01h0Z"/>
  <path id="Rounded_Rectangle_1" data-name="Rounded Rectangle 1" class="cls-2" d="M19,2221H17a1,1,0,0,1-1-1v-2a1,1,0,0,1,1-1h1v-3H11v3h1a1,1,0,0,1,1,1v2a1,1,0,0,1-1,1H9a1,1,0,0,1-1-1v-2a1,1,0,0,1,1-1h1v-3H3v3H4a1,1,0,0,1,1,1v2a1,1,0,0,1-1,1H1a1,1,0,0,1-1-1v-2a1,1,0,0,1,1-1H2v-4h8v-3H7a1,1,0,0,1-1-1v-3a1,1,0,0,1,1-1h7a1,1,0,0,1,1,1v3a1,1,0,0,1-1,1H11v3h8v4a1,1,0,0,1,1,1v2A1,1,0,0,1,19,2221Z"/>
  <path id="Rounded_Rectangle_1_copy" data-name="Rounded Rectangle 1 copy" class="cls-1" d="M18,2286.71a1.2,1.2,0,0,1-1.286,1.29H3.286A1.178,1.178,0,0,1,2,2286.71v-2.14a0.571,0.571,0,0,1,1.143,0v2.29H16.857v-2.29a0.571,0.571,0,0,1,1.143,0v2.14Zm-7.578-2.39-0.032.03a0.559,0.559,0,0,1-.808,0l-3.973-3.97a0.572,0.572,0,0,1,.808-0.81l3.011,3.01v-10.01a0.571,0.571,0,0,1,1.143,0v9.97l3.019-3.01a0.565,0.565,0,0,1,.812,0,0.572,0.572,0,0,1,0,.81Z"/>
  <path id="layout_copy" data-name="layout copy" class="cls-2" d="M17.375,2357H0.625A0.626,0.626,0,0,1,0,2356.37v-15.75A0.624,0.624,0,0,1,.625,2340h16.75a0.624,0.624,0,0,1,.625.62v15.75A0.626,0.626,0,0,1,17.375,2357ZM6,2356H17v-15H1v15H6Zm-3-13H8v3H3v-3Zm7,0h5v3H10v-3Zm-7,4H8v3H3v-3Zm7,0h5v3H10v-3Zm-7,4H8v3H3v-3Zm7,0h5v3H10v-3Zm-6-7H7v1H4v-1Zm7,0h3v1H11v-1Zm-7,4H7v1H4v-1Zm7,0h3v1H11v-1Zm-7,4H7v1H4v-1Zm7,0h3v1H11v-1Z"/>
  <path class="cls-1" d="M3.06,2379.18a6.675,6.675,0,0,1,8.511-.22l-1.948.07a0.45,0.45,0,0,0-.436.46,0.444,0.444,0,0,0,.453.42H9.657l2.991-.1a0.45,0.45,0,0,0,.436-0.44v-0.06h0l-0.111-2.88a0.453,0.453,0,0,0-.905.04l0.07,1.8a7.591,7.591,0,0,0-9.685.26,7.13,7.13,0,0,0-2.24,7.09,0.446,0.446,0,0,0,.439.33,0.391,0.391,0,0,0,.107-0.01,0.442,0.442,0,0,0,.332-0.53A6.269,6.269,0,0,1,3.06,2379.18Zm11.747,3.21a0.455,0.455,0,0,0-.547-0.32,0.442,0.442,0,0,0-.332.53,6.262,6.262,0,0,1-1.969,6.23,6.7,6.7,0,0,1-8.565.18l1.972-.18a0.439,0.439,0,0,0,.409-0.48,0.453,0.453,0,0,0-.493-0.4l-2.981.27a0.439,0.439,0,0,0-.409.48l0.268,2.9a0.445,0.445,0,0,0,.449.4h0.04a0.451,0.451,0,0,0,.409-0.48L2.9,2389.75a7.528,7.528,0,0,0,4.3,1.6c0.127,0,.255.01,0.379,0.01a7.494,7.494,0,0,0,4.987-1.88A7.13,7.13,0,0,0,14.808,2382.39Z"/>
  <path id="total" class="cls-2" d="M0.1,2440.41a0.949,0.949,0,0,0,.88.59H13.047a0.956,0.956,0,0,0,.953-0.96v-2.87a0.953,0.953,0,1,0-1.906,0v1.91H3.269l4.364-4.41a0.965,0.965,0,0,0,.049-1.3l-4.636-5.46h9.049v0.64a0.953,0.953,0,1,0,1.906,0v-1.59a0.956,0.956,0,0,0-.953-0.96H0.979a0.96,0.96,0,0,0-.725,1.58l5.408,6.37L0.3,2439.37A0.954,0.954,0,0,0,.1,2440.41Z"/>
  <path id="history" class="cls-3" d="M8.4,2479.95H7.2v4.02l3.76,2.21,0.64-1.02-3.2-1.9v-3.31m0-3.95a7.487,7.487,0,0,0-6.56,3.79L0,2477.97v5.13H5.2l-2.24-2.21a6.1,6.1,0,0,1,5.44-3.31,5.921,5.921,0,1,1,0,11.84,6.07,6.07,0,0,1-5.68-3.95H1.04A7.639,7.639,0,0,0,8.4,2491a7.5,7.5,0,1,0,0-15"/>
  <path class="cls-2" d="M11.079,2541H2.312a0.77,0.77,0,0,1-.759-0.77s0-1.84,0-4.03H3.064v3.27h8.012a1.4,1.4,0,0,0,1.4-1.38v-8.57a2.318,2.318,0,0,1-.834.16H3.064v1.72h-1.5c0-1.43.008-2.47,0.014-2.49a1.04,1.04,0,0,1,.391-0.77,1.091,1.091,0,0,0-.115-1.8,0.709,0.709,0,0,1-.227-0.84,0.776,0.776,0,0,1,.722-0.5h9.3A2.34,2.34,0,0,1,14,2527.34v10.75A2.91,2.91,0,0,1,11.079,2541Zm0.569-14.47H3.827a1.546,1.546,0,0,1,0,1.61h7.822a0.81,0.81,0,0,0,.834-0.8A0.818,0.818,0,0,0,11.649,2526.53ZM3.064,2533v-1.6H3.111v1.6H3.5v-2.29L7,2533.8l-3.5,3.77v-2.28H3.111v0.91H3.064v-0.91H1.558c0,0.3,0,.61,0,0.91h0v-0.91H0V2533H1.556v-1.6H1.565c0,0.49,0,1.04,0,1.6h1.5Z"/>
  <path id="down_document" data-name="down document" class="cls-2" d="M13,2581v-6H1v14H9a1.247,1.247,0,0,1-1,1H0.58a0.571,0.571,0,0,1-.58-0.56v-14.88A0.571,0.571,0,0,1,.58,2574H13a0.872,0.872,0,0,1,1,1v5c0,0.31.027,0.59,0,1C13.979,2581.32,13,2581.31,13,2581Zm-11-4h9v1H2v-1Zm0,2h9v1H2v-1Zm0,2h8v1H2v-1Zm0,2H9v1H2v-1Zm0,2H8v1H2v-1Zm9,1H9l3.5,4,3.5-4H14v-4H11v4Z"/>
  <path id="upload_document" data-name="upload document" class="cls-2" d="M13,2629v-6H1v14H9a1.247,1.247,0,0,1-1,1H0.58a0.571,0.571,0,0,1-.58-0.56v-14.88A0.571,0.571,0,0,1,.58,2622H13a0.872,0.872,0,0,1,1,1v5c0,0.31.027,0.59,0,1C13.979,2629.32,13,2629.31,13,2629Zm-11-4h9v1H2v-1Zm0,2h9v1H2v-1Zm0,2h8v1H2v-1Zm0,2H9v1H2v-1Zm0,2H8v1H2v-1Zm9,0H9l3.5-3,3.5,3H14v5H11v-5Z"/>
  <path id="share" class="cls-1" d="M13.054,2670.17a2.917,2.917,0,0,0-2.295,1.12l-4.99-2.54a2.576,2.576,0,0,0-.021-1.57l4.967-2.52a2.9,2.9,0,1,0-.6-1.75,2.84,2.84,0,0,0,.113.76l-4.988,2.53A2.931,2.931,0,0,0,.006,2668a2.934,2.934,0,0,0,5.279,1.74l4.966,2.52A2.933,2.933,0,1,0,13.054,2670.17Z"/>
  <path id="Rounded_Rectangle_1_copy-2" data-name="Rounded Rectangle 1 copy" class="cls-1" d="M16,2710.71a1.2,1.2,0,0,1-1.286,1.29H1.286A1.178,1.178,0,0,1,0,2710.71v-2.14a0.571,0.571,0,0,1,1.143,0v2.29H14.857v-2.29a0.571,0.571,0,0,1,1.143,0v2.14Zm-8.1-14.49c-0.01-.01-0.02-0.03-0.031-0.04a0.543,0.543,0,0,0-.794,0l-3.9,4.12a0.618,0.618,0,0,0,0,.84,0.543,0.543,0,0,0,.794,0l2.96-3.12v10.39a0.562,0.562,0,1,0,1.123,0v-10.35l2.968,3.13a0.533,0.533,0,0,0,.8,0,0.616,0.616,0,0,0,0-.84Z"/>
  <path id="pdf" class="cls-3" d="M3.959,2741.19a0.729,0.729,0,0,0-.875-0.69,1.929,1.929,0,0,0-.463.05v1.38a1.847,1.847,0,0,0,.375.03A0.815,0.815,0,0,0,3.959,2741.19Zm3.458-.67a2.569,2.569,0,0,0-.508.04v3.07a2.277,2.277,0,0,0,.39.02,1.5,1.5,0,0,0,1.677-1.64A1.383,1.383,0,0,0,7.418,2740.52ZM14,2739v-2s-2.311-2.39-3.865-3.99a0.017,0.017,0,0,1-.018-0.01H2a1.411,1.411,0,0,0-1,1v5a1.273,1.273,0,0,0-1,1l0,4.28a0.85,0.85,0,0,0,1,.72v3a1.062,1.062,0,0,0,1,1H12.692A1.144,1.144,0,0,0,14,2748v-1l0.045-1.83a0.922,0.922,0,0,0,.949-0.89L15,2740A0.94,0.94,0,0,0,14,2739Zm-12-5H9v4h4v1H2v-5Zm8.169,7.97a2.312,2.312,0,0,1-.825,1.9,3.708,3.708,0,0,1-2.287.6,9.307,9.307,0,0,1-1.273-.07v-4.6a11.082,11.082,0,0,1,1.516-.09,3.334,3.334,0,0,1,2.03.5A2.015,2.015,0,0,1,10.169,2741.97Zm-8.659,2.46v-4.63a10.692,10.692,0,0,1,1.516-.09,2.486,2.486,0,0,1,1.515.37,1.355,1.355,0,0,1,.529,1.09,1.471,1.471,0,0,1-.456,1.11,2.389,2.389,0,0,1-1.611.49c-0.147,0-.28-0.01-0.382-0.02v1.68H1.51ZM13,2748H2v-2H13v2Zm0.936-7.39H12.031v1.07h1.781v0.86h-1.78v1.89H10.906v-4.69h3.031v0.87Z"/>
  <path id="layout" class="cls-2" d="M17.375,2328H0.625A0.626,0.626,0,0,1,0,2327.37v-14.75A0.624,0.624,0,0,1,.625,2312h16.75a0.624,0.624,0,0,1,.625.62v14.75A0.626,0.626,0,0,1,17.375,2328ZM6,2327H17v-14H1v14H6Zm-3-12H8v2H3v-2Zm7,0h5v2H10v-2Zm-7,4H8v2H3v-2Zm7,0h5v2H10v-2Zm-7,4H8v2H3v-2Zm7,0h5v2H10v-2Z"/>
  <path id="forward" class="cls-2" d="M5,2130l1-1H0v10H14v-5l-1,1v3H1v-8H5Zm6-1.17c-3.54.03-7.033,2.88-7.033,6.5A9.328,9.328,0,0,1,11,2132.55v1.84l5-3.7L11,2127v1.83Z"/>
  <path class="cls-3" d="M14.857,2092H13v-1h2v-2h1v3H14.857ZM15,2085l1,0.14V2088H15v-3Zm0-4h1v3H15v-3Zm0-3H13v-1h3v3H15v-2Zm-6,13h3v1H9v-1Zm0-14h3v1H9v-1Zm0.4,5.91a5.142,5.142,0,0,1-.6,1.34,1.193,1.193,0,0,1-.69.67,1.448,1.448,0,0,1-.722-0.85,6.5,6.5,0,0,1-.547-1.34,4.925,4.925,0,0,1-.2-1.31,2.133,2.133,0,0,1,.326-1.22,1.381,1.381,0,0,1,2.135-.21,2.082,2.082,0,0,1,.531,1.52A4.814,4.814,0,0,1,9.4,2082.91ZM4,2077H8v1H4v-1Zm-4,15v-3H1v2H3v1H0Zm1-12H0v-3H3v1H1v2Zm0,4H0v-3H1v3Zm0,4H0v-3H1v3Zm7,4H4v-1H8v1Zm-0.881-5.94a1.4,1.4,0,0,1,1.042-.44,1.263,1.263,0,0,1,.952.42,1.326,1.326,0,0,1,.4.96,1.384,1.384,0,1,1-2.768,0A1.3,1.3,0,0,1,7.119,2086.06Z"/>
  <path id="group" class="cls-2" d="M15.66,2038.1a14.729,14.729,0,0,0-2.7-1.81,0.077,0.077,0,0,1-.046-0.08v-1.9a0.9,0.9,0,0,0,.381-0.74v-1.97a1.741,1.741,0,0,0-1.71-1.78H11.177a1.741,1.741,0,0,0-1.71,1.78v1.97a0.9,0.9,0,0,0,.381.74v1.9a0.168,0.168,0,0,1-.007.04c0.361,0.26.736,0.54,1.1,0.86a1.953,1.953,0,0,1,.676,1.49v2.4H16v-2.17A0.961,0.961,0,0,0,15.66,2038.1Zm-5.209-.37a17.994,17.994,0,0,0-3.174-2.12,0.1,0.1,0,0,1-.056-0.09v-2.24a1.034,1.034,0,0,0,.451-0.87v-2.32A2.055,2.055,0,0,0,5.661,2028H5.18a2.055,2.055,0,0,0-2.011,2.09v2.32a1.061,1.061,0,0,0,.451.87v2.24a0.1,0.1,0,0,1-.056.09,17.869,17.869,0,0,0-3.174,2.12,1.138,1.138,0,0,0-.394.87v2.4H10.846v-2.4A1.128,1.128,0,0,0,10.452,2037.73Z"/>
  <path class="cls-2" d="M13.649,1978.34a8.007,8.007,0,0,0-11.313,0A8,8,0,0,0,7.992,1992,8,8,0,0,0,13.649,1978.34Zm-0.643,10.67a7.09,7.09,0,1,1,0-10.02A7.048,7.048,0,0,1,13.006,1989.01Zm-1.488-8.54a1.524,1.524,0,0,0-1.232.1L8,1982.86l-2.286-2.29a1.561,1.561,0,0,0-1.247-.1,1.515,1.515,0,0,0,.1,1.24L6.857,1984l-2.286,2.29a1.5,1.5,0,0,0-.1,1.23,0.453,0.453,0,0,0,.32.14,3.261,3.261,0,0,0,.927-0.23L8,1985.14l2.286,2.29a3.115,3.115,0,0,0,.905.23,0.411,0.411,0,0,0,.32-0.14,1.489,1.489,0,0,0-.082-1.23L9.143,1984l2.286-2.29A1.511,1.511,0,0,0,11.518,1980.47Z"/>
  <path id="reply_" data-name="reply " class="cls-1" d="M13.009,1935.19l-5.2,5.14v-3.12c-1.574,0-5.582.04-5.582,4.28A4.569,4.569,0,0,0,5.8,1946a6.811,6.811,0,0,1-5.8-6.8c0-6.49,6.73-6.55,7.815-6.55V1930Z"/>
  <path id="Rounded_Rectangle_2_copy" data-name="Rounded Rectangle 2 copy" class="cls-1" d="M17.888,1776.97c-0.129.41-5.461,16.69-5.461,16.69a0.672,0.672,0,0,1-.472.34,0.606,0.606,0,0,1-.562-0.31c-0.148-.25-3.685-6.34-3.685-6.34a0.517,0.517,0,0,1,.045-0.63c0.259-.37,1.3-1.78,1.3-1.78l0.022-.04-1.888,1.41a0.546,0.546,0,0,1-.539-0.02c-0.294-.16-6.337-3.68-6.337-3.68a0.587,0.587,0,0,1,.18-1.1c0.268-.09,16.674-5.44,16.674-5.44a0.638,0.638,0,0,1,.629.11A0.658,0.658,0,0,1,17.888,1776.97Zm-15.91,5.28L6.9,1785.1s4.608-3.42,4.719-3.48a0.5,0.5,0,0,1,.7.13,0.561,0.561,0,0,1,0,.74l-3.438,4.61,2.876,4.92,4.764-14.54Zm0.607,4.24a0.564,0.564,0,0,1,.746.05,0.55,0.55,0,0,1,.063.74l-1.618,1.64a0.58,0.58,0,0,1-.765-0.06,0.559,0.559,0,0,1-.044-0.75Zm2.673,1.45a0.588,0.588,0,1,1,.834.83l-3.8,3.8a0.6,0.6,0,0,1-.845.02,0.6,0.6,0,0,1,.011-0.85Zm1.44,2.71a0.552,0.552,0,0,1,.746.04,0.562,0.562,0,0,1,.063.75l-1.618,1.64a0.58,0.58,0,0,1-.765-0.06,0.559,0.559,0,0,1-.044-0.75Z"/>
  <path id="Shape_7_copy" data-name="Shape 7 copy" class="cls-2" d="M9.492,1737.98l2.459-1.24,2.5,1.26-0.343-2.93,1.89-2.16-2.715-.56-1.335-2.58-1.335,2.58-2.715.56,1.89,2.16S9.548,1737.26,9.492,1737.98ZM9,1738H0v-14.99l9-.01,3,3v3c-0.132,0-.727-0.01-1,0v-2H8v-3H1v13H9v1Zm0-12h2l-2-2v2Zm-7,3H9v1H2v-1Zm5,5H2v-1H7A5,5,0,0,1,7,1734Zm2-3H2v1H8C7.916,1732.13,9,1731,9,1731Z"/>
  <path id="send" class="cls-4" d="M11.59,2806.87c-0.5,0-.744.08-0.744-0.41v-1.23H2.231v13.54h8.615v-1.23c0-.36.133-0.41,0.392-0.41,0-.09,0-0.2,0-0.33v-2.79H5.277c-0.431,0-.574-0.87-0.574-1.29v-0.21c0-.42.143-1.29,0.574-1.29h5.966v-2.79a5.383,5.383,0,0,0-.025-0.65l5.8,4.83-5.418,4.52a0.894,0.894,0,0,1,.9.89v1.09a0.9,0.9,0,0,1-.9.89H1.909a0.9,0.9,0,0,1-.9-0.89v-14.22a0.9,0.9,0,0,1,.9-0.89H11.59a0.9,0.9,0,0,1,.9.89v1.09A0.9,0.9,0,0,1,11.59,2806.87Zm-0.372.91-0.059-.04S11.193,2807.61,11.218,2807.78Z"/>
  <path class="cls-2" d="M15.619,181l-2.667,2.667v4.381c0,1.2-.952.952-0.952,0.952H0.952A0.787,0.787,0,0,1,0,188.048v-13.9A1.006,1.006,0,0,1,1.143,173h7.81a1.428,1.428,0,0,1,.952.571s2.446,2.828,2.667,3.048a1.021,1.021,0,0,1,.381,1.066v1.986l0.762-.766a0.353,0.353,0,0,1,.571,0l1.333,1.333A0.765,0.765,0,0,1,15.619,181ZM9.9,174.714v2.1h1.9Zm2.286,3.238a0.317,0.317,0,0,0-.381-0.381H9.524a0.329,0.329,0,0,1-.381-0.381v-3.047c0-.476-0.381-0.381-0.381-0.381H1.143a0.325,0.325,0,0,0-.381.381v13.714a0.387,0.387,0,0,0,.381.381H11.81a0.338,0.338,0,0,0,.381-0.381v-3.428L11.619,185a6.674,6.674,0,0,1-.952.762,22.359,22.359,0,0,1-2.286.762s-0.512.045-.381-0.381c0.214-.695.762-2.095,0.762-2.095a3.084,3.084,0,0,1,.571-0.762c0.2-.189,1.675-1.663,2.857-2.85v-2.484Zm2.667,2.477a5,5,0,0,0-.571-0.572s-0.193-.2-0.571.191c-0.151.156-4,4-4,4L10.667,185l4.19-4.19A0.357,0.357,0,0,0,14.857,180.429ZM2.1,181a0.381,0.381,0,0,1,.381-0.381H9.524a0.381,0.381,0,0,1,0,.762H2.476A0.381,0.381,0,0,1,2.1,181Zm7.429-1.524H2.476a0.381,0.381,0,0,1,0-.762H9.524A0.381,0.381,0,0,1,9.524,179.476Zm-7.048,3.048H5.9a0.381,0.381,0,0,1,0,.762H2.476A0.381,0.381,0,0,1,2.476,182.524Zm0,1.905H5.9a0.381,0.381,0,1,1,0,.761H2.476A0.381,0.381,0,1,1,2.476,184.429Zm7.619,0.952-0.762-.762-0.381,1.143Z"/>
  <path id="save_and_next" data-name="save and next" class="cls-5" d="M8.316,1312.37a0.432,0.432,0,0,0,.438-0.43v-1.75a0.438,0.438,0,1,0-.875,0v1.75A0.432,0.432,0,0,0,8.316,1312.37ZM3,1309h8v3c0,0.97-.1,1-1,1H4a0.9,0.9,0,0,1-1-1v-3Zm7.313,12H2c-1.031,0-1,.1-1-1v-10c-0.031-.8.225-1,1-1v4a0.812,0.812,0,0,0,1,1h8a0.856,0.856,0,0,0,1-1v-4a0.835,0.835,0,0,1,1,1v6c0,0.25,1.007.48,1.007,0.06v-6.31a1.748,1.748,0,0,0-1.751-1.75H1.751A1.748,1.748,0,0,0,0,1309.75v10.5A1.748,1.748,0,0,0,1.751,1322h8.624C10.648,1322,10.6,1321,10.313,1321ZM13,1320H9c-0.464,0-.293-1,0-1h4c0-.84.007-1.51,0.007-1.96l3,2.46-3,2.46C13.006,1321.44,13,1320.85,13,1320Zm0.007-2.96-0.027-.02S12.995,1316.98,13.007,1317.04Zm-0.027,4.94,0.026-.02C12.994,1322.01,12.98,1321.98,12.98,1321.98Z"/>
  <path class="cls-1" d="M8,1388.38v-2.3H5.714v-1.16H8v-2.3H9.143v2.3h2.286v1.16H9.143v2.3H8ZM8.4,1393a7.639,7.639,0,0,1-7.36-5.53H2.72a6.07,6.07,0,0,0,5.68,3.95,5.921,5.921,0,1,0,0-11.84,6.1,6.1,0,0,0-5.44,3.31l2.24,2.21H0v-5.13l1.84,1.82A7.487,7.487,0,0,1,8.4,1378,7.5,7.5,0,1,1,8.4,1393Z"/>
  <path id="doAgain" class="cls-1" d="M8.4,1436a7.487,7.487,0,0,0-6.56,3.79L0,1437.97v5.13H5.2l-2.24-2.21a6.1,6.1,0,0,1,5.44-3.31,5.921,5.921,0,1,1,0,11.84,6.07,6.07,0,0,1-5.68-3.95H1.04A7.639,7.639,0,0,0,8.4,1451a7.5,7.5,0,1,0,0-15"/>
  <path class="cls-2" d="M15.543,1507H0.457A0.443,0.443,0,0,1,0,1506.57v-11.14A0.443,0.443,0,0,1,.457,1495H15.543a0.443,0.443,0,0,1,.457.43v11.14A0.443,0.443,0,0,1,15.543,1507ZM15,1497c0-.99-0.069-1-1-1H2c-0.967,0-1,.18-1,1v8c0,0.89.1,1,1,1H14c0.9,0,1-.18,1-1v-8Zm-6.209,6.78s-1.888-1.62-2.464-2.11a1.394,1.394,0,0,1,1.074-1.2l1.472,1.26,3.369-3.46s1.25,0.48,1.154,1.16c-0.845.86-4.189,4.3-4.189,4.3ZM2,1498H9v1H2v-1Zm3,4H2v-1H5v1Zm0,3H2v-1H5v1Z"/>
  <path id="Shape_1_copy" data-name="Shape 1 copy" class="cls-1" d="M12.51,1562.16a0.708,0.708,0,0,0,0,1.02,0.758,0.758,0,0,0,1.047,0l2.221-2.17c0.017-.02.034-0.03,0.049-0.05l0.019-.03,0.024-.03,0.019-.03,0.018-.03c0.006-.01.011-0.02,0.016-0.03l0.015-.03c0-.01.008-0.03,0.012-0.04s0.009-.02.013-0.03,0.006-.02.008-0.03a0.337,0.337,0,0,1,.009-0.04,0.235,0.235,0,0,0,.006-0.04c0-.01,0-0.02,0-0.03s0-.05,0-0.07h0c0-.02,0-0.05,0-0.07s0-.02,0-0.03a0.243,0.243,0,0,0-.006-0.04c0-.01-0.006-0.03-0.009-0.04s-0.005-.02-0.009-0.03-0.008-.02-0.012-0.03a0.163,0.163,0,0,0-.012-0.04c0-.01-0.01-0.02-0.015-0.03s-0.01-.02-0.016-0.03l-0.017-.03-0.02-.03-0.023-.03-0.02-.03c-0.015-.02-0.03-0.03-0.047-0.05h0l-2.221-2.17a0.758,0.758,0,0,0-1.047,0,0.708,0.708,0,0,0,0,1.02l0.957,0.94H6.325a0.72,0.72,0,1,0,0,1.44h7.142ZM0.739,1553H10.6a0.725,0.725,0,0,1,.734.72v2.89a0.734,0.734,0,0,1-1.468,0L10,1554H1v13h9l-0.129-2.61a0.734,0.734,0,0,1,1.468,0v2.89a0.725,0.725,0,0,1-.734.72H0.739A0.726,0.726,0,0,1,0,1567.28v-13.56A0.726,0.726,0,0,1,.739,1553Z"/>
  <path id="Shape_1_copy_2" data-name="Shape 1 copy 2" class="cls-5" d="M3.7,1618.75h8.863l-0.92.98a0.778,0.778,0,0,0,0,1.06,0.685,0.685,0,0,0,1.006,0l2.134-2.26a0.194,0.194,0,0,0,.047-0.05l0.018-.03,0.023-.03,0.019-.03a0.146,0.146,0,0,0,.017-0.04l0.015-.03,0.014-.03a0.173,0.173,0,0,0,.011-0.04c0-.01.008-0.02,0.012-0.03a0.216,0.216,0,0,0,.008-0.04c0-.01.006-0.02,0.009-0.03s0-.03.006-0.04a0.314,0.314,0,0,0,0-.04,0.624,0.624,0,0,0,0-.07h0a0.624,0.624,0,0,0,0-.07,0.339,0.339,0,0,0,0-.04c0-.01,0-0.02-0.006-0.04a0.356,0.356,0,0,1-.009-0.04c0-.01-0.005-0.02-0.008-0.03s-0.008-.02-0.012-0.03a0.171,0.171,0,0,0-.012-0.04l-0.014-.03a0.2,0.2,0,0,1-.016-0.04l-0.017-.03-0.019-.03-0.022-.03-0.019-.03c-0.014-.02-0.029-0.03-0.045-0.05h0l-2.134-2.26a0.675,0.675,0,0,0-1.006,0,0.778,0.778,0,0,0,0,1.06l0.92,0.98H3.7A0.751,0.751,0,0,0,3.7,1618.75ZM8,1614v-3H18v14H8v-3c0-.84-1-0.84-1,0v3a1.075,1.075,0,0,0,.83,1H18.273a0.753,0.753,0,0,0,.722-0.78v-14.44a0.753,0.753,0,0,0-.722-0.78H7.83a1.075,1.075,0,0,0-.83,1v3C7,1614.84,8,1614.84,8,1614Z"/>
  <path id="reply_copy" data-name="reply  copy" class="cls-2" d="M8,1668.6l-2-2.66-6,2.66,2,2.66Zm0,5.31-1,2.66-7-2.66,2-2.65Zm0,3.1V1681s-4.33-1.85-5.766-2.46c0-.64.015-2.26,0.015-3.57C3.7,1675.48,8,1677.01,8,1677.01Zm8-3.1-2-2.65-6,2.76,1,2.55Zm-2.281,1.07c-1.481.52-5.719,2.03-5.719,2.03V1681s4.279-1.83,5.74-2.45C13.74,1677.48,13.719,1676.07,13.719,1674.98Zm1.316-7.09-2.929,3.38-0.157-1.89a4.183,4.183,0,0,0-4.838,2.76c0.151-3.22,1.019-5.64,4.609-5.53L11.586,1665Z"/>
  <path id="Forma_1-2" data-name="Forma 1" class="cls-3" d="M8,1826a7.992,7.992,0,0,0-5.683,13.62,0.034,0.034,0,0,1,.014.02,0.016,0.016,0,0,1,.014.02A8,8,0,1,0,8,1826Zm-6.883,7.99a6.878,6.878,0,0,1,11.324-5.23l-9.683,9.67A6.816,6.816,0,0,1,1.117,1833.99ZM8,1840.87a6.866,6.866,0,0,1-4.455-1.64l9.683-9.67A6.858,6.858,0,0,1,8,1840.87Z"/>
  <path id="Forma_1-3" data-name="Forma 1" class="cls-1" d="M7.346,1891.68H8.68v-6H7.346v6Zm0.667-9.33a1,1,0,1,0,0,2A1,1,0,0,0,8.013,1882.35Zm0-3.34a8,8,0,1,0,8,8A8,8,0,0,0,8.013,1879.01Zm0,14.67a6.665,6.665,0,1,1,6.667-6.67A6.675,6.675,0,0,1,8.013,1893.68Z"/>
  <path id="ic-delete" class="cls-3" d="M11.793,1162.12H8.428v-0.56a0.552,0.552,0,0,0-.559-0.56,0.084,0.084,0,0,0-.06.02,0.076,0.076,0,0,0-.04-0.02H5.131a0.544,0.544,0,0,0-.549.56v0.56L1,1162a1.16,1.16,0,0,0-1,1.35V1165H1v10c0,1.52,1.231,2,3,2H9c1.6,0,3-.35,3-2v-10h1v-1.65A1.2,1.2,0,0,0,11.793,1162.12Zm-4.472,0h0ZM11,1175c0,0.67-1.2,1-2,1H4c-0.863,0-2-.24-2-1v-10h9v10Zm1-11H1a1.149,1.149,0,0,1,1-1h9A0.954,0.954,0,0,1,12,1164Zm-4,5H9v6H8v-6Zm-2,0H7v6H6v-6Zm-2,0H5v6H4v-6Z"/>
  <path class="cls-1" d="M14.839,1218.93l-0.849.92-2.416-2.11,0.85-.92a0.653,0.653,0,0,1,.441-0.2,0.64,0.64,0,0,1,.462.15l1.463,1.28A0.613,0.613,0,0,1,14.839,1218.93Zm-1.938-1.69-0.424.45,1.463,1.28,0.423-.46Zm0.277,3.49-2.416-2.11,0.594-.64,2.415,2.1Zm-5.355,5.8-2.415-2.1,5.122-5.56,2.416,2.11Zm2.024-5.41-0.015-.02a0.311,0.311,0,0,0-.209-0.07,0.346,0.346,0,0,0-.2.09l-2.749,2.98a0.3,0.3,0,0,0,.024.43,0.31,0.31,0,0,0,.208.07,0.3,0.3,0,0,0,.2-0.09l2.763-3A0.268,0.268,0,0,0,9.846,1221.12Zm0.571-1.07-0.136.14a0.294,0.294,0,0,0-.073.21,0.278,0.278,0,0,0,.1.19l0.016,0.01a0.268,0.268,0,0,0,.209.07,0.256,0.256,0,0,0,.2-0.09l0.329-.35-0.231-.21A0.294,0.294,0,0,0,10.417,1220.05ZM10,1215H7s0.017,0.66-.344.66H4.25C3.961,1215.66,4,1215,4,1215H1l-0.023,9.12A1.459,1.459,0,0,0,2,1225s1.928,0.04,2.4.04c-0.079.27-.4,0.96-0.4,0.96H1a0.949,0.949,0,0,1-1-1l0-10.15a0.846,0.846,0,0,1,1-.85l2.419-.21v-0.07a0.394,0.394,0,0,1,.4-0.39H4.157a1.266,1.266,0,0,1-.01-0.16,1.2,1.2,0,0,1,2.407,0,1.462,1.462,0,0,1-.01.16H6.882a0.393,0.393,0,0,1,.4.39v0.07L10,1214a0.949,0.949,0,0,1,1,1v2s-0.469.23-1,.5V1215Zm-4.65-2.3a0.476,0.476,0,0,0-.481.47,0.522,0.522,0,0,0,.028.16H5.8a0.5,0.5,0,0,0,.028-0.16A0.476,0.476,0,0,0,5.35,1212.7ZM3,1218H8v1H3v-1Zm0,4c-0.266,0-.289-0.48-0.289-0.74S2.734,1221,3,1221H7l-1,1H3Zm4.534,4.85-2.854,1.13a0.316,0.316,0,0,1-.324-0.05,0.3,0.3,0,0,1-.091-0.31l0.854-2.88Zm-1.882.3,1.091-.44-1.4-1.22-0.327,1.1Z"/>
  <path class="cls-1" d="M0,1290v-16H10.214L13,1276.67V1290H0Zm10-15v2h2Zm2,6v-3H9v-3H1v14H12v-8Zm-6.132,2.61,4.233-4.27,1.033,1.04-5.115,5.17-0.151-.16-0.151.16-2.923-2.95,1.033-1.05Z"/>
  <path id="save_again" data-name="save again" class="cls-2" d="M12.2,1066a3.8,3.8,0,0,0-3.28,1.77L8,1066.92v2.4h2.6l-1.12-1.04a3.078,3.078,0,0,1,2.72-1.54,2.77,2.77,0,1,1,0,5.52,3.028,3.028,0,0,1-2.84-1.84H8.52A3.8,3.8,0,0,0,12.2,1073a3.512,3.512,0,1,0,0-7m0.8-.92V1059c0-.91-0.148-1-1-1v3a0.943,0.943,0,0,1-1,1H3a0.883,0.883,0,0,1-1-1v-3c-0.852,0-1,.21-1,1v10c0,0.95.117,1,1,1H7.116c0.259,0,.268,1,0,1H1.5a1.5,1.5,0,0,1-1.5-1.5v-11a1.5,1.5,0,0,1,1.5-1.5h11a1.5,1.5,0,0,1,1.5,1.5v6.58C14.006,1065.41,13,1065.44,13,1065.08ZM11,1058H3v2a0.834,0.834,0,0,0,1,1h6c0.77,0,1-.17,1-1v-2Zm-1.872,2.75a0.378,0.378,0,0,1-.375-0.38v-1.5a0.375,0.375,0,0,1,.75,0v1.5A0.377,0.377,0,0,1,9.128,1060.75Z"/>
  <path id="calendar" class="cls-2" d="M3.91,1110.73H4.139a0.637,0.637,0,0,0,.63-0.64v-2.43a0.631,0.631,0,0,0-.63-0.64H3.91a0.631,0.631,0,0,0-.63.64v2.43A0.637,0.637,0,0,0,3.91,1110.73Zm7.079-.02h0.229a0.631,0.631,0,0,0,.63-0.64v-2.43a0.637,0.637,0,0,0-.63-0.64H10.989a0.637,0.637,0,0,0-.63.64v2.43A0.631,0.631,0,0,0,10.989,1110.71Zm2.987-2.39H12.36v1.92a1.017,1.017,0,0,1-1.142.99H10.989a1.152,1.152,0,0,1-1.142-1.16v-1.75H5.281v1.77a1.152,1.152,0,0,1-1.142,1.16H3.91a1.152,1.152,0,0,1-1.142-1.16v-1.77H1.024A1.035,1.035,0,0,0,0,1109.36v12.6A1.035,1.035,0,0,0,1.024,1123H13.976A1.036,1.036,0,0,0,15,1121.96v-12.6A1.036,1.036,0,0,0,13.976,1108.32ZM14,1122H1v-10H14v10Zm-6-9h2v2H8v-2Zm3,0h2v2H11v-2Zm-3,3h2v2H8v-2Zm3,0h2v2H11v-2Zm-3,3h2v2H8v-2Zm3,0h2v2H11v-2Zm-9-3H4v2H2v-2Zm3,0H7v2H5v-2Zm-3,3H4v2H2v-2Zm3,0H7v2H5v-2Z"/>
  <path id="Rounded_Rectangle_2_copy_2" data-name="Rounded Rectangle 2 copy 2" class="cls-5" d="M16.5,1030H14v2.5a0.5,0.5,0,0,1-1,0V1030H10.5a0.5,0.5,0,0,1,0-1H13v-2.5a0.5,0.5,0,0,1,1,0v2.5h2.5A0.5,0.5,0,0,1,16.5,1030Zm-3.5-6v-3c0-.98-0.087-1-1-1v3a0.9,0.9,0,0,1-1,1H3a0.85,0.85,0,0,1-1-1v-3c-0.913,0-1,.15-1,1v10c0,1.02.054,1,1,1H9c0.278,0,.287,1,0,1H2c-1.773,0-2-.44-2-1.69v-10.7A1.608,1.608,0,0,1,1.608,1019H12.256a1.608,1.608,0,0,1,1.608,1.61A22.07,22.07,0,0,1,14,1024C14,1024.35,13,1024.38,13,1024Zm-2-4H3v2c0,0.83.242,1,1,1H8.547a0.323,0.323,0,0,0,.091.04,0.323,0.323,0,0,0,.091-0.04H10c0.825,0,1-.1,1-1v-2Zm-2.764,2.63v-1.61a0.4,0.4,0,1,1,.8,0v1.61a0.392,0.392,0,0,1-.311.37H8.547A0.393,0.393,0,0,1,8.236,1022.63Z"/>
  <path class="cls-2" d="M0,993V977H10l4,4v12H0Zm13-12H10v-3H1v14H13V981Zm-9,0H3v-1H4v1Zm0,3H3v-1H4v1Zm0,3H3v-1H4v1Zm0,3H3v-1H4v1Zm4-9H5v-1H8v1Zm3,3H5v-1h6v1Zm0,3H5v-1h6v1Zm0,3H5v-1h6v1Z"/>
  <path class="cls-2" d="M13.085,841H0.911a0.922,0.922,0,0,1-.923-0.912V827.08A1.161,1.161,0,0,1,1,826H4c0.193-1.2,1.757-2,3-2s2.807,0.8,3,2h3a1.158,1.158,0,0,1,1.009,1.08v13.008A0.922,0.922,0,0,1,13.085,841ZM7,825a0.96,0.96,0,0,0-1,1H8A0.909,0.909,0,0,0,7,825Zm6,2H11a1.1,1.1,0,0,1-1,1H4a1.031,1.031,0,0,1-1-1H1v13H13V827ZM2.873,831.35a0.376,0.376,0,0,1,.513-0.046l0.633,0.5,1.537-1.543a0.5,0.5,0,0,1,.705,0l0.221,0.221a0.5,0.5,0,0,1,0,.709L4.548,833.13a0.669,0.669,0,0,1-.889.052l-1.1-.875a0.38,0.38,0,0,1-.047-0.552Zm0,3.647a0.377,0.377,0,0,1,.513-0.044l0.633,0.5,1.537-1.544a0.5,0.5,0,0,1,.706,0l0.221,0.221a0.5,0.5,0,0,1,0,.709l-1.935,1.944a0.668,0.668,0,0,1-.889.052l-1.1-.875a0.381,0.381,0,0,1-.047-0.552Zm8.327-1.783H7v-1.357h4.2v1.357Zm0,4.071H7v-1.357h4.2v1.357Z"/>
  <path id="Forma_1-4" data-name="Forma 1" class="cls-3" d="M6,892h5v1H6v-1ZM3,881H13v2h1v-2a1.018,1.018,0,0,0-1-1H3a1.019,1.019,0,0,0-1,1v2H3v-2Zm3,9h5v1H6v-1Zm9-5H1a1.019,1.019,0,0,0-1,1v6a0.871,0.871,0,0,0,1,1H2v2a1.019,1.019,0,0,0,1,1H13a0.943,0.943,0,0,0,1-1v-2h1a1.018,1.018,0,0,0,1-1v-6A1.018,1.018,0,0,0,15,885Zm-2,10H3v-6H13v6Zm0.714-7a1.143,1.143,0,0,1,0-2.286A1.143,1.143,0,0,1,13.714,888Z"/>
  <path class="cls-2" d="M13.649,931.343a8,8,0,0,0-11.313,0A8,8,0,0,0,7.992,945,8,8,0,0,0,13.649,931.343Zm-0.643,10.67a7.092,7.092,0,1,1,0-10.027A7.045,7.045,0,0,1,13.006,942.013Zm-1.488-8.539a1.5,1.5,0,0,0-1.232.1L8,935.857l-2.286-2.286a1.536,1.536,0,0,0-1.247-.1,1.518,1.518,0,0,0,.1,1.24L6.857,937l-2.286,2.285a1.518,1.518,0,0,0-.1,1.24,0.459,0.459,0,0,0,.32.134,3.229,3.229,0,0,0,.927-0.231L8,938.143l2.286,2.285a3.181,3.181,0,0,0,.905.231,0.441,0.441,0,0,0,.32-0.134,1.512,1.512,0,0,0-.082-1.24L9.143,937l2.286-2.286A1.514,1.514,0,0,0,11.518,933.474Z"/>
  <path id="Rounded_Rectangle_1_copy-3" data-name="Rounded Rectangle 1 copy" class="cls-1" d="M13.307,728.729H7.656v5.578a0.693,0.693,0,1,1-1.385,0v-5.578H0.693a0.693,0.693,0,1,1,0-1.385H6.271v-5.651a0.693,0.693,0,1,1,1.385,0v5.651h5.651A0.693,0.693,0,1,1,13.307,728.729Z"/>
  <path id="check" class="cls-1" d="M16.781,777.223a0.788,0.788,0,0,0-1.131,0l-9.584,9.789-3.684-3.763a0.788,0.788,0,0,0-1.131,0,0.83,0.83,0,0,0,0,1.156l4.25,4.34a0.789,0.789,0,0,0,1.131,0l10.15-10.367A0.829,0.829,0,0,0,16.781,777.223Z"/>
  <path id="delete" class="cls-3" d="M15.017,676.985L9,683l6.015,6.015-1,1L8,684l-6.015,6.015-1-1L7,683l-6.015-6.015,1-1L8,682l6.015-6.015Z"/>
  <path id="search" class="cls-6" d="M0.2,533.662l2.64-2.713a5.887,5.887,0,0,1-1.483-3.893A6.2,6.2,0,0,1,7.682,521a6.062,6.062,0,1,1,0,12.112,6.44,6.44,0,0,1-3.621-1.1l-2.668,2.741A0.836,0.836,0,0,1,.8,535a0.84,0.84,0,0,1-.571-0.22A0.768,0.768,0,0,1,.2,533.662ZM7.682,522.58a4.48,4.48,0,1,0,0,8.952A4.48,4.48,0,1,0,7.682,522.58Z"/>
  <path class="cls-6" d="M7.988,572c-4.411,0-8,2.962-8,6.6a6.243,6.243,0,0,0,2.894,5.088,3.668,3.668,0,0,1-.779,1.494,1.1,1.1,0,0,0-.262,1.081,0.692,0.692,0,0,0,.033.091,1.074,1.074,0,0,0,.99.645,6.311,6.311,0,0,0,4.172-1.844c0.328,0.031.646,0.047,0.951,0.047,4.411,0,8-2.961,8-6.6S12.4,572,7.988,572Zm0,11.679a8.776,8.776,0,0,1-1.123-.077,0.781,0.781,0,0,0-.642.217,5.9,5.9,0,0,1-2.355,1.507,5.383,5.383,0,0,0,.629-1.9,0.76,0.76,0,0,0-.369-0.756,4.791,4.791,0,0,1-2.6-4.069c0-2.8,2.9-5.076,6.464-5.076s6.464,2.277,6.464,5.076S11.552,583.678,7.988,583.678ZM5,580v-1h6v1H5Zm0-3h6v1H5v-1Z"/>
  <path class="cls-2" d="M15.776,637.488a9.692,9.692,0,0,0-1.787-1.278,0.066,0.066,0,0,1-.032-0.057V634.8a0.652,0.652,0,0,0,.253-0.526v-1.4a1.2,1.2,0,0,0-1.131-1.263H12.807a1.2,1.2,0,0,0-1.131,1.263v1.4a0.652,0.652,0,0,0,.253.526v1.35a0.069,0.069,0,0,1-.032.057c-0.089.047-1.16,1.016-1.506,1.25,0.193,0.149.393,0.313,0.588,0.493a1.459,1.459,0,0,1,.213,1.021h0l1.751,0H16v-0.959A0.714,0.714,0,0,0,15.776,637.488ZM9.1,636.854a15.078,15.078,0,0,0-2.764-1.848,0.091,0.091,0,0,1-.049-0.082v-1.95a0.918,0.918,0,0,0,.391-0.759v-2.022a1.789,1.789,0,0,0-1.75-1.823H4.508a1.789,1.789,0,0,0-1.75,1.823v2.022a0.918,0.918,0,0,0,.391.759v1.95a0.1,0.1,0,0,1-.049.082,15.315,15.315,0,0,0-2.764,1.848,1,1,0,0,0-.341.756V639h4.1l0.4-1.933c-0.817-1.19.062-1.248,0.213-1.248h0c0.154,0,1.034.058,0.213,1.248L5.329,639h4.1V637.61A0.941,0.941,0,0,0,9.1,636.854Zm-3.517-7.688s3.539-3.609,5.609,0c-0.6.545-1.6,1.635-1.6,1.635H13.6v-4.086l-1.6.817S8.255,623.173,5.584,629.166Z"/>
  <path id="Shape_3_copy_5" data-name="Shape 3 copy 5" class="cls-2" d="M8,35.47L10,33l6,2.47-2,2.471Zm0,0L6,33,0,35.47l2,2.471Zm0,4.941L7,42.882,0,40.411l2-2.471Zm0,2.882V47L2.291,44.733c0-.956,0-2.021,0-3.329Zm8-2.882-2-2.471L8,40.514l1,2.368Zm-2.3,1L8,43.294V47s4.3-1.59,5.714-2.154C13.714,43.731,13.7,42.481,13.7,41.407Z"/>
  <path id="repeat" class="cls-2" d="M14.413,14.608h-9.5l1.125,1.2a0.663,0.663,0,0,1,0,.843,0.774,0.774,0,0,1-1.125-.07L2.736,14.4a0.631,0.631,0,0,1,0-.914l2.392-2.39a0.822,0.822,0,0,1,.985.07,0.731,0.731,0,0,1,0,.914l-1.2,1.2h9.5a2.036,2.036,0,0,0,2.181-2.179V6.1A0.7,0.7,0,0,1,18,6.1v5.061A3.379,3.379,0,0,1,14.413,14.608ZM12.867,5.469a0.821,0.821,0,0,1-.984-0.07,0.732,0.732,0,0,1,0-.914l1.2-1.2H3.586a2.035,2.035,0,0,0-2.18,2.18v4.992a0.733,0.733,0,0,1-.7.7,0.733,0.733,0,0,1-.7-0.7V5.4A3.379,3.379,0,0,1,3.586,1.953h9.492l-1.125-1.2a0.663,0.663,0,0,1,0-.843,0.774,0.774,0,0,1,1.125.07l2.18,2.18a0.631,0.631,0,0,1,0,.914Z"/>
  <path id="save" class="cls-4" d="M8.316,111.374a0.438,0.438,0,0,0,.438-0.438v-1.75a0.438,0.438,0,0,0-.875,0v1.75A0.438,0.438,0,0,0,8.316,111.374ZM12.256,107H1.751A1.75,1.75,0,0,0,0,108.749v10.5A1.75,1.75,0,0,0,1.751,121H12.256a1.75,1.75,0,0,0,1.751-1.75v-10.5A1.75,1.75,0,0,0,12.256,107ZM3,108h8v3c0,0.97-.1,1-1,1H4a0.9,0.9,0,0,1-1-1v-3Zm10,11c0,0.848-.042,1-1,1H2c-1.031,0-1,.1-1-1V109c-0.031-.8.225-1,1-1v4a0.813,0.813,0,0,0,1,1h8a0.857,0.857,0,0,0,1-1v-4a0.837,0.837,0,0,1,1,1v10Z"/>
  <path id="delete-2" data-name="delete" class="cls-5" d="M15.017,139.984L9,146l6.015,6.015-1,1L8,147l-6.015,6.015-1-1L7,146l-6.015-6.015,1-1L8,145l6.015-6.015Z"/>
  <path id="document_add" data-name="document add" class="cls-1" d="M12,298.97V299H0V283.008L9,283l3,3v4A4.515,4.515,0,0,1,12,298.97ZM9,284v2h2Zm2,3H8v-3H1v14s6.414-.193,7.582-0.193A4.2,4.2,0,0,1,7,294.5a4.426,4.426,0,0,1,.03-0.5L2,294c-0.014-.286,0-0.5,0-1l5.261,0a4.536,4.536,0,0,1,.378-0.811c-0.8,0-5.354-.049-5.354-0.049L2,291l6.673,0A6.752,6.752,0,0,1,11,290v-3Zm0.5,4.061a3.44,3.44,0,1,0,3.44,3.44A3.447,3.447,0,0,0,11.5,291.061ZM12,295v2H11v-2H9v-1h2v-2h1v2h2v1H12ZM2,289H9v1H2v-1Z"/>
  <path id="document_edit" data-name="document edit" class="cls-3" d="M12,331.97V332H0V316.008L9,316l3,3v4A4.515,4.515,0,0,1,12,331.97ZM9,317v2h2Zm2,3H8v-3H1v14s6.414-.193,7.582-0.193A4.2,4.2,0,0,1,7,327.5a4.426,4.426,0,0,1,.03-0.5L2,327c-0.014-.286,0-0.5,0-1l5.261,0a4.536,4.536,0,0,1,.378-0.811c-0.8,0-5.354-.049-5.354-0.049L2,324l6.673,0A6.752,6.752,0,0,1,11,323v-3Zm0.5,4.061a3.44,3.44,0,1,0,3.44,3.44A3.447,3.447,0,0,0,11.5,324.061ZM2,322H9v1H2v-1Zm11.881,4.223-0.4.4L12.356,325.5l0.4-.4a0.3,0.3,0,0,1,.425-0.035l0.732,0.732A0.306,0.306,0,0,1,13.881,326.223Zm-3.636,1.395,1.925-1.929,1.122,1.124-2.675,2.68a0.2,0.2,0,0,1-.094.059l-0.017.007-1.4.446a0.1,0.1,0,0,1-.1-0.022,0.1,0.1,0,0,1-.021-0.1l0.445-1.4c0-.006,0-0.011.007-0.017a0.208,0.208,0,0,1,.059-0.094l0.5-.5m0.274,1.541-0.691-.692-0.185.583,0.294,0.3Z"/>
  <path id="eidt" class="cls-3" d="M15,373v9c0,1.647-.038,2-2,2H2c-1.647,0-2-.475-2-2l0-11.157C0,369.069.229,369,2,369h9l-1,1H1v13H14v-9Zm-1.32-5-0.776.778,2.327,2.332,0.776-.777Zm-8.533,8.552,2.327,2.331,6.981-7-2.327-2.332Zm-0.754,3.085H6.587l-2.194-2.2v2.2Z"/>
  <path id="send_mail" data-name="send mail" class="cls-2" d="M20.016,430.591L20,421a0.854,0.854,0,0,0-1-1H6a0.86,0.86,0,0,0-1,1v3c0,0.437,1,.468,1,0v-2l4.21,3.761a0.416,0.416,0,0,0-.057.047L6,429v-2H2c-0.316,0-.316,1,0,1H5v2a2.045,2.045,0,0,0,1,1H19A1.119,1.119,0,0,0,20.016,430.591Zm-4.666-4.783-0.008-.006L18.2,422.41a0.424,0.424,0,0,0,.05-0.6,0.437,0.437,0,0,0-.611-0.05l-4.88,5.087L6,421H19v8Zm-4.584.606a0.443,0.443,0,0,0,.076-0.1l1.622,1.418a0.44,0.44,0,0,0,.568.006l1.653-1.385a0.409,0.409,0,0,0,.051.062L19,430H6ZM0.45,425.888H6.775a0.428,0.428,0,1,0,0-.856H0.45A0.428,0.428,0,1,0,.45,425.888Zm0.759-2.359H3.5a0.429,0.429,0,1,0,0-.857H1.209A0.429,0.429,0,1,0,1.209,423.529Zm1.422,5.546H0.45a0.429,0.429,0,1,0,0,.857H2.631A0.429,0.429,0,1,0,2.631,429.075Z"/>
  <path id="preview" class="cls-3" d="M17.883,477.634c-0.161-.23-4-5.634-8.9-5.634s-8.737,5.4-8.9,5.633a0.644,0.644,0,0,0,0,.733c0.161,0.23,4,5.634,8.9,5.634s8.737-5.4,8.9-5.634A0.642,0.642,0,0,0,17.883,477.634Zm-8.9,5.124c-3.61,0-6.736-3.586-7.661-4.758,0.924-1.174,4.044-4.759,7.661-4.759s6.736,3.586,7.661,4.759C15.721,479.174,12.6,482.758,8.984,482.758Zm0-8.482a3.728,3.728,0,0,0,0,7.448A3.728,3.728,0,0,0,8.984,474.276Zm0,6.207a2.485,2.485,0,0,1,0-4.966A2.485,2.485,0,0,1,8.984,480.483Z"/>
</svg>
